<?xml version="1.0" encoding="utf-8"?>
<!-- Generator: Adobe Illustrator 24.1.2, SVG Export Plug-In . SVG Version: 6.00 Build 0)  -->
<svg version="1.1" id="Camada_1" xmlns="http://www.w3.org/2000/svg" xmlns:xlink="http://www.w3.org/1999/xlink" x="0px" y="0px"
	 viewBox="0 0 690.9 189.2" style="enable-background:new 0 0 690.9 189.2;" xml:space="preserve">
<style type="text/css">
	.st0{fill:#FFFFFF;}
</style>
<g id="Camada_2_1_">
	<g id="Camada_1-2">
		<path class="st0" d="M240.4,66.1c2.8,1.2,5.7,1.8,8.8,1.8c2.9,0.1,5.6-1.3,7.2-3.8c1.8-2.5,2.7-6.6,2.7-12.2V10.1h19.4v47.7
			c0,3.7-0.4,7.3-1.4,10.9c-0.8,3.1-2.3,5.9-4.4,8.3c-2.2,2.4-5,4.3-8.1,5.3c-3.9,1.3-8.1,2-12.3,1.9c-1.8,0-3.6-0.2-5.3-0.5
			c-1.7-0.3-3.8-0.8-6.3-1.4l-0.4-0.1L240.4,66.1z M352.7,55.3c0,9.6-2.9,16.8-8.5,21.6s-13.5,7.2-23.4,7.3
			c-9.9,0-17.7-2.4-23.4-7.3s-8.5-12-8.5-21.6V10.1h19.4V52c0,2.3,0.2,4.7,0.6,7c0.3,2,1,3.9,2,5.6c0.9,1.6,2.3,2.9,3.9,3.8
			c1.9,1,3.9,1.4,6,1.4c2.1,0.1,4.2-0.4,6.1-1.4c1.6-0.9,3-2.2,3.9-3.8c1-1.7,1.7-3.6,2-5.6c0.4-2.3,0.6-4.7,0.6-7V10.1h19.4
			L352.7,55.3z M363.5,10.1h24.7l24.6,49.4h0.2l-0.3-49.4h17.7v72.8h-24.1l-25.5-49.8h-0.2l0.6,49.8h-17.8V10.1z M454.7,24.5h-17.9
			V10.1h55.3v14.4h-17.9v58.4h-19.4V24.5z M504.8,18.8c6.2-6.7,15.3-10,27.1-10s20.9,3.3,27.1,10c6.3,6.7,9.4,15.9,9.4,27.7
			s-3.1,21-9.4,27.6c-6.3,6.7-15.3,10-27.1,10c-11.7,0-20.8-3.3-27.1-10c-6.3-6.7-9.4-15.9-9.4-27.6
			C495.4,34.8,498.6,25.5,504.8,18.8z M516.4,55.4c0.6,2.6,1.6,5.1,3,7.4c1.3,2.1,3.1,3.8,5.2,5.1c2.2,1.3,4.8,1.9,7.4,1.9
			c2.6,0.1,5.2-0.6,7.5-1.9c2.1-1.2,3.9-3,5.2-5.1c1.4-2.3,2.4-4.8,2.9-7.4c0.6-2.9,1-5.9,0.9-8.9c0-3-0.3-6.1-0.9-9.1
			c-0.6-2.6-1.6-5.1-2.9-7.5c-1.3-2.1-3-3.8-5.2-5c-2.3-1.2-4.9-1.8-7.5-1.8c-2.6-0.1-5.1,0.5-7.4,1.8c-2.1,1.2-3.9,2.9-5.2,5
			c-1.4,2.3-2.4,4.8-3,7.4c-0.6,3-1,6-0.9,9.1C515.4,49.5,515.7,52.5,516.4,55.4z M577.4,65c2.9,1.5,6,2.7,9.2,3.5
			c3.5,0.9,7.2,1.3,10.8,1.3c3,0.1,6-0.4,8.7-1.6c2.1-1,3.5-3.2,3.3-5.5c0.1-2.3-1.1-4.5-3.1-5.6c-3.1-1.7-6.4-3-9.8-4
			c-2.8-0.8-5.6-1.7-8.3-2.8c-2.3-0.9-4.4-2.2-6.4-3.7c-2.1-1.6-3.8-3.7-4.9-6.1c-1.3-2.9-2-6.1-1.9-9.3c-0.1-3.7,0.8-7.4,2.8-10.6
			c1.8-2.9,4.4-5.3,7.4-6.9c3.2-1.7,6.6-2.9,10.1-3.6c3.8-0.8,7.6-1.1,11.5-1.1c3.4,0,6.8,0.2,10.1,0.7c2.9,0.4,5.8,1.1,8.7,2
			l-1.3,15c-5.1-2.3-10.6-3.4-16.2-3.3c-1.5,0-3,0.1-4.4,0.2c-1.4,0.1-2.8,0.4-4.1,0.9c-1.2,0.4-2.3,1.1-3.2,2
			c-0.9,1-1.3,2.3-1.3,3.6c0,2,1.1,3.9,2.9,4.8c3,1.5,6.1,2.6,9.3,3.4c3.3,1,6.2,1.9,8.4,2.7c2.4,0.9,4.6,2.1,6.7,3.7
			c2.2,1.6,4,3.8,5.2,6.3c1.4,2.9,2,6.2,1.9,9.4c0.1,4-0.8,7.9-2.6,11.5c-1.7,3.1-4.1,5.6-7.1,7.5c-3.1,1.9-6.6,3.2-10.1,3.9
			c-4,0.8-8.1,1.2-12.2,1.2c-3.7,0-7.5-0.3-11.2-0.8c-3.6-0.5-7.1-1.3-10.5-2.3L577.4,65z M286.5,120.5c-4.7-2.1-9.7-3.1-14.8-3.1
			c-1.4,0-2.7,0.2-4.1,0.5c-1.3,0.3-2.5,0.9-3.6,1.7c-1.1,0.8-2.1,1.9-2.7,3.1c-0.7,1.5-1.1,3.1-1,4.8c-0.1,2.2,1,4.3,2.9,5.5
			c2.9,1.8,6,3.2,9.2,4.4c3.1,1.2,5.6,2.3,7.7,3.2c2.1,1,4.1,2.3,5.9,3.9c1.9,1.7,3.5,3.7,4.5,6c1.2,2.7,1.8,5.7,1.7,8.7
			c0.1,3.5-0.7,6.9-2.1,10c-1.3,2.8-3.4,5.1-5.9,6.9c-2.6,1.8-5.6,3.1-8.6,3.9c-3.5,0.9-7.1,1.3-10.6,1.3c-2.8,0-5.5-0.1-8.2-0.5
			c-2.2-0.4-5.1-1-8.9-1.9l-1.6-0.4l1.4-13.1c2.6,1.4,5.3,2.5,8.1,3.3c2.7,0.8,5.6,1.2,8.4,1.2c3.1,0,6.2-0.8,8.9-2.4
			c2.6-1.4,4.1-4,4.1-6.9c0.1-2.5-1-4.8-3.1-6.3c-3-1.9-6.3-3.5-9.6-4.7c-2.9-1.2-5.4-2.3-7.4-3.2c-2.1-1-4-2.3-5.7-3.8
			c-1.9-1.6-3.3-3.6-4.4-5.8c-1.2-2.6-1.7-5.5-1.7-8.4c-0.1-3.5,0.6-6.9,2.1-10.1c1.3-2.7,3.2-5.1,5.7-6.9c2.4-1.8,5.2-3.1,8.1-3.9
			c3.1-0.9,6.4-1.3,9.6-1.3c5.9-0.1,11.8,0.8,17.4,2.6L286.5,120.5z M309.1,116.1c6.2-6.8,15-10.2,26.3-10.2
			c5.2-0.1,10.3,0.8,15.1,2.7c4.3,1.7,8.1,4.3,11.2,7.7c3.1,3.5,5.5,7.5,6.9,11.9c1.6,4.9,2.5,10,2.4,15.1
			c0.1,5.2-0.7,10.3-2.4,15.2c-1.5,4.4-3.8,8.5-6.9,12c-3.1,3.4-6.9,6.1-11.2,7.9c-4.8,1.9-10,2.9-15.2,2.8
			c-11.4,0-20.2-3.4-26.4-10.3s-9.3-16.1-9.3-27.5C299.8,132,302.9,122.9,309.1,116.1L309.1,116.1z M316.1,153.2
			c0.7,3,1.9,5.8,3.6,8.4c1.6,2.5,3.8,4.5,6.4,5.9c5.9,2.9,12.8,2.9,18.7,0c2.6-1.4,4.8-3.5,6.4-5.9c1.7-2.6,2.9-5.4,3.6-8.4
			c0.8-3.2,1.2-6.5,1.1-9.8c0-3.3-0.4-6.5-1.2-9.6c-0.7-3-2-5.8-3.7-8.3c-1.6-2.4-3.8-4.4-6.4-5.8c-5.7-2.9-12.5-2.9-18.3,0
			c-2.6,1.4-4.8,3.4-6.4,5.9c-1.7,2.6-2.9,5.4-3.7,8.4c-0.8,3.1-1.2,6.4-1.2,9.6C315,146.7,315.3,150,316.1,153.2L316.1,153.2z
			 M382.4,107.2h23.4l17.3,55.2h0.2l17.3-55.2h23.4V180H450v-60.1h-0.2L430.1,180h-14l-19.6-60.1l-0.2,0.2V180h-14L382.4,107.2z
			 M484.5,116.1c6.2-6.8,15-10.2,26.3-10.2c5.2-0.1,10.3,0.8,15.1,2.7c4.3,1.7,8.1,4.3,11.2,7.7c3.1,3.5,5.5,7.5,6.9,11.9
			c1.6,4.9,2.5,10,2.4,15.1c0.1,5.2-0.7,10.3-2.3,15.2c-1.5,4.4-3.8,8.5-6.9,12c-3.1,3.5-6.9,6.1-11.2,7.9c-4.8,1.9-10,2.9-15.2,2.8
			c-11.4,0-20.2-3.4-26.4-10.3s-9.3-16.1-9.3-27.5C475.2,132,478.3,122.9,484.5,116.1L484.5,116.1z M491.5,153.2
			c0.7,3,1.9,5.9,3.6,8.4c1.6,2.5,3.8,4.5,6.4,5.9c5.9,2.9,12.8,2.9,18.7,0c2.6-1.4,4.8-3.5,6.4-5.9c1.7-2.6,2.9-5.4,3.6-8.4
			c0.8-3.2,1.2-6.5,1.2-9.8c0-3.3-0.4-6.5-1.2-9.6c-0.7-3-2-5.8-3.7-8.3c-1.6-2.4-3.8-4.4-6.4-5.8c-5.7-2.9-12.5-2.9-18.3,0
			c-2.6,1.4-4.8,3.4-6.4,5.9c-1.7,2.6-2.9,5.4-3.7,8.4c-0.8,3.1-1.2,6.4-1.2,9.6C490.4,146.7,490.8,150,491.5,153.2L491.5,153.2z
			 M596.9,120.5c-4.7-2.1-9.7-3.1-14.8-3.1c-1.4,0-2.7,0.2-4.1,0.5c-1.3,0.3-2.5,0.9-3.7,1.7c-1.1,0.8-2.1,1.9-2.7,3.1
			c-0.7,1.5-1.1,3.1-1,4.8c-0.1,2.2,1,4.3,2.9,5.5c2.9,1.8,6,3.2,9.2,4.4c3.1,1.2,5.6,2.3,7.7,3.2c2.1,1,4.1,2.3,5.9,3.9
			c1.9,1.7,3.5,3.7,4.5,6c1.2,2.7,1.8,5.7,1.7,8.7c0.1,3.5-0.7,6.9-2.1,10c-1.3,2.8-3.4,5.1-5.9,6.9c-2.6,1.8-5.6,3.1-8.7,3.9
			c-3.5,0.9-7.1,1.3-10.6,1.3c-2.8,0-5.5-0.1-8.2-0.5c-2.2-0.4-5.1-1-8.9-1.9l-1.6-0.4l1.4-13.1c2.6,1.4,5.3,2.5,8.1,3.3
			c2.7,0.8,5.6,1.2,8.4,1.2c3.1,0,6.2-0.8,8.9-2.4c2.6-1.4,4.1-4,4.1-6.9c0.1-2.5-1-4.8-3.1-6.3c-3-1.9-6.3-3.5-9.7-4.7
			c-2.9-1.2-5.4-2.3-7.4-3.2c-2.1-1-4-2.3-5.7-3.8c-1.9-1.6-3.3-3.6-4.4-5.8c-1.2-2.6-1.7-5.5-1.7-8.4c-0.1-3.5,0.6-6.9,2-10.1
			c1.3-2.7,3.2-5.1,5.7-6.9c2.4-1.8,5.2-3.1,8.1-3.9c3.1-0.9,6.4-1.3,9.6-1.3c5.9-0.1,11.8,0.8,17.4,2.6L596.9,120.5z"/>
		<circle class="st0" cx="18.3" cy="170.1" r="18.3"/>
		<path class="st0" d="M87.6,125.9V175c0,12.5-8.9,17.8-19.9,11.8l-28.3-36.1l41.6-40.5C85.3,114.3,87.6,120,87.6,125.9z"/>
		<path class="st0" d="M15.9,103.3H65c6.1,0,11.9,2.5,16.2,6.8l-41.7,40.5L4.1,123.1C-1.9,112.2,3.4,103.3,15.9,103.3z"/>
		<path class="st0" d="M156,18.5c0,10.1,8.2,18.3,18.3,18.3c10.1,0,18.3-8.2,18.3-18.3s-8.2-18.3-18.3-18.3c0,0,0,0,0,0
			C164.2,0.2,156,8.4,156,18.5C156,18.5,156,18.5,156,18.5z M124.8,2.5c-10.9-6-19.9-0.7-19.9,11.8v49.1c0,6.1,2.5,12,6.9,16.3
			l40.9-41.2L124.8,2.5z"/>
		<path class="st0" d="M188.4,66.1l-35.7-27.8l-40.9,41.2c4.2,4.1,9.9,6.4,15.7,6.4h49.1C189.1,86,194.4,77.1,188.4,66.1z"/>
		<circle class="st0" cx="173.8" cy="170.1" r="18.3"/>
		<path class="st0" d="M129.2,103.3h49.1c12.5,0,17.8,8.9,11.8,19.9l-36.3,28.4l-40.9-41.2C117.1,105.8,123,103.3,129.2,103.3
			L129.2,103.3z"/>
		<path class="st0" d="M153.8,151.5l-27.3,35.2c-10.9,6-19.9,0.7-19.9-11.8v-49.1c0-5.8,2.3-11.4,6.3-15.6L153.8,151.5z"/>
		<path class="st0" d="M2.1,18.5c0,10.1,8.2,18.3,18.3,18.3s18.3-8.2,18.3-18.3S30.4,0.2,20.3,0.2c0,0,0,0,0,0
			C10.3,0.2,2.1,8.4,2.1,18.5z"/>
		<path class="st0" d="M87.6,63.3V14.2c0-12.5-8.9-17.8-19.9-11.8l-29,36.9l41.6,40.5C85,75.6,87.6,69.6,87.6,63.3z"/>
		<path class="st0" d="M38.8,39.4L4.1,66.1C-1.9,77.1,3.4,86,15.9,86H65c5.7,0,11.3-2.2,15.4-6.1L38.8,39.4z"/>
		<path class="st0" d="M616.3,132.5h28v-28h18.6v28h28V151h-28v28h-18.6v-28h-28V132.5z"/>
	</g>
</g>
</svg>
